<?xml version="1.0" encoding="utf-8"?>
<!-- Generator: Adobe Illustrator 24.0.2, SVG Export Plug-In . SVG Version: 6.00 Build 0)  -->
<svg version="1.1" id="Layer_1" xmlns="http://www.w3.org/2000/svg" xmlns:xlink="http://www.w3.org/1999/xlink" x="0px" y="0px"
	 viewBox="0 0 512 512" style="enable-background:new 0 0 512 512;" xml:space="preserve">
<style type="text/css">
	.st0{fill:#FFFFFF;}
	.st1{display:none;fill:#228138;}
	.st2{fill:#228138;}
</style>
<circle class="st0" cx="256" cy="250" r="223"/>
<path class="st1" d="M512,256C512,114.6,397.4,0,256,0S0,114.6,0,256c0,127.8,93.6,233.7,216,252.9V330h-65v-74h65v-56.4
	c0-64.2,38.2-99.6,96.7-99.6c28,0,57.3,5,57.3,5v63h-32.3c-31.8,0-41.7,19.7-41.7,40v48h71l-11.4,74H296v178.9
	C418.4,489.7,512,383.8,512,256z"/>
<path class="st1" d="M256,0C114.6,0,0,114.6,0,256s114.6,256,256,256s256-114.6,256-256S397.4,0,256,0z M407.1,190.1
	c0.2,3.2,0.2,6.4,0.2,9.7c0,98.3-74.8,211.5-211.5,211.5c-42.1,0-81.2-12.2-114.2-33.4c6,0.7,11.7,0.9,18,0.9
	c34.8,0,66.7-11.7,92.3-31.8c-32.7-0.7-60.1-22.1-69.5-51.6c4.6,0.7,9.2,1.2,14,1.2c6.7,0,13.3-0.9,19.6-2.5
	c-34.1-6.9-59.6-36.8-59.6-73v-0.9c9.9,5.5,21.4,9,33.6,9.4c-20-13.3-33.1-36.1-33.1-61.9c0-13.8,3.7-26.5,10.1-37.5
	c36.6,45.1,91.6,74.6,153.3,77.8c-1.2-5.5-1.8-11.3-1.8-17c0-41,33.1-74.3,74.3-74.3c21.4,0,40.7,9,54.3,23.5
	c16.8-3.2,32.9-9.4,47.2-18c-5.5,17.3-17.3,31.8-32.7,41c15-1.6,29.5-5.8,42.8-11.5C434.2,166.4,421.6,179.5,407.1,190.1z"/>
<g>
	<path class="st2" d="M390.1,153.2c-6-15.1-17.6-26.7-32.7-32.7c-22.5-9-76.3-6.9-101.3-6.9s-78.7-2-101.3,6.9
		c-15.1,6-26.7,17.6-32.7,32.7c-9,22.5-6.9,76.3-6.9,101.3s-2,78.7,6.9,101.3c6,15.1,17.6,26.7,32.7,32.7c22.5,9,76.3,6.9,101.3,6.9
		s78.7,2,101.3-6.9c15.1-6,26.7-17.6,32.7-32.7c9-22.6,6.9-76.3,6.9-101.3C397,229.5,399.1,175.8,390.1,153.2z M256,342.6
		c-48.7,0-88.1-39.5-88.1-88.2s39.3-88.1,88.1-88.1s88.1,39.5,88.1,88.2S304.7,342.6,256,342.6z M347.8,183.2
		c-11.4,0-20.6-9.2-20.6-20.6c0-11.4,9.2-20.6,20.6-20.6s20.6,9.2,20.6,20.6C368.4,174.1,359.2,183.2,347.8,183.2z"/>
	<path class="st2" d="M256,0C114.6,0,0,114.6,0,256s114.6,256,256,256s256-114.6,256-256S397.4,0,256,0z M426.8,325.3
		c-1.4,27.6-7.7,52-27.8,72.1c-20.1,20.2-44.6,26.5-72.1,27.8c-28.3,1.6-113.4,1.6-141.9,0c-27.6-1.4-51.9-7.7-72.1-27.8
		s-26.5-44.6-27.8-72.1c-1.6-28.3-1.6-113.4,0-141.9c1.4-27.5,7.5-52,27.7-72.1S157.5,85,185,83.7c28.3-1.6,113.4-1.6,141.9,0
		c27.6,1.4,52,7.7,72.1,27.8c20.2,20.1,26.5,44.6,27.8,72.1C428.4,211.9,428.4,296.9,426.8,325.3z"/>
	<ellipse class="st2" cx="256" cy="254.5" rx="57.3" ry="57.3"/>
</g>
</svg>
