<?xml version="1.0" encoding="utf-8"?>
<!-- Generator: Adobe Illustrator 24.0.2, SVG Export Plug-In . SVG Version: 6.00 Build 0)  -->
<svg version="1.1" id="Layer_1" xmlns="http://www.w3.org/2000/svg" xmlns:xlink="http://www.w3.org/1999/xlink" x="0px" y="0px"
	 viewBox="0 0 512 512" style="enable-background:new 0 0 512 512;" xml:space="preserve">
<style type="text/css">
	.st0{fill:#FFFFFF;}
	.st1{display:none;fill:#228138;}
	.st2{display:none;}
	.st3{display:inline;fill:#228138;}
</style>
<circle class="st0" cx="256" cy="256" r="223.4"/>
<path class="st1" d="M512,256C512,114.6,397.4,0,256,0S0,114.6,0,256c0,127.8,93.6,233.7,216,252.9V330h-65v-74h65v-56.4
	c0-64.2,38.2-99.6,96.7-99.6c28,0,57.3,5,57.3,5v63h-32.3c-31.8,0-41.7,19.7-41.7,40v48h71l-11.4,74H296v178.9
	C418.4,489.7,512,383.8,512,256z"/>
<path class="st1" d="M256,0C114.6,0,0,114.6,0,256s114.6,256,256,256s256-114.6,256-256S397.4,0,256,0z M415.7,172.6
	c0.3,3.6,0.3,7.1,0.3,10.7c0,108.9-82.9,234.4-234.4,234.4c-46.7,0-90-13.5-126.5-37c6.6,0.8,13,1,19.9,1c38.5,0,74-13,102.3-35.2
	c-36.2-0.8-66.6-24.5-77-57.1c5.1,0.8,10.2,1.3,15.6,1.3c7.4,0,14.8-1,21.7-2.8c-37.7-7.7-66.1-40.8-66.1-80.8v-1
	c11,6.1,23.7,9.9,37.2,10.5C86.5,201.8,72,176.6,72,148c0-15.3,4.1-29.3,11.2-41.6c40.5,50,101.5,82.6,169.8,86.2
	c-1.3-6.1-2-12.5-2-18.9c0-45.4,36.7-82.4,82.4-82.4c23.7,0,45.1,9.9,60.2,26c18.6-3.6,36.5-10.5,52.3-19.9
	c-6.1,19.1-19.1,35.2-36.2,45.4c16.6-1.8,32.6-6.4,47.4-12.8C445.8,146.3,431.8,160.9,415.7,172.6z"/>
<g class="st2">
	<path class="st3" d="M401.3,144.7c-6.5-16.4-19.1-28.9-35.4-35.4c-24.4-9.7-82.7-7.5-109.8-7.5c-27.1,0-85.3-2.2-109.8,7.5
		c-16.4,6.5-28.9,19.1-35.4,35.4c-9.7,24.4-7.5,82.7-7.5,109.8s-2.2,85.3,7.5,109.8c6.5,16.4,19.1,28.9,35.4,35.4
		c24.4,9.7,82.7,7.5,109.8,7.5s85.3,2.2,109.8-7.5c16.4-6.5,28.9-19.1,35.4-35.4c9.7-24.5,7.5-82.7,7.5-109.8
		C408.8,227.4,411,169.2,401.3,144.7z M256,350c-52.8,0-95.5-42.8-95.5-95.6s42.6-95.5,95.5-95.5s95.5,42.8,95.5,95.6
		S308.8,350,256,350z M355.5,177.3c-12.4,0-22.3-10-22.3-22.3s10-22.3,22.3-22.3s22.3,10,22.3,22.3
		C377.8,167.4,367.8,177.3,355.5,177.3z"/>
	<ellipse class="st3" cx="256" cy="254.5" rx="62.1" ry="62.1"/>
	<path class="st3" d="M256,0C114.6,0,0,114.6,0,256s114.6,256,256,256s256-114.6,256-256S397.4,0,256,0z M411,409.3
		c-21.8,21.9-48.3,28.7-78.1,30.1c-30.7,1.7-122.9,1.7-153.7,0c-29.9-1.5-56.2-8.3-78.1-30.1C79.2,387.5,72.4,361,71,331.2
		c-1.7-30.7-1.7-122.9,0-153.7c1.5-29.8,8.1-56.3,30-78.1s48.3-28.6,78.1-30c30.7-1.7,122.9-1.7,153.7,0
		c29.9,1.5,56.3,8.3,78.1,30.1c21.9,21.8,28.7,48.3,30.1,78.1c1.8,30.8,1.8,122.9,0.1,153.6C439.6,361.1,432.8,387.5,411,409.3z"/>
</g>
<image style="overflow:visible;" width="512" height="512" xlink:href="../Downloads/web.png"  transform="matrix(0.9992 0 0 0.9992 0 0.4006)">
</image>
</svg>
